<svg width="208" height="204" viewBox="0 0 208 204" fill="none" xmlns="http://www.w3.org/2000/svg">
<path id="Vector" d="M104.867 194.677C94.2201 193.195 83.5879 191.727 71.96 190.113C71.5499 193.988 71.0227 198.875 70.5394 203.264C65.0476 198.743 64.0664 193.386 68.0498 188.132C58.3989 182.055 48.7333 175.949 38.3648 169.418C36.417 172.691 34.1031 176.581 31.9504 180.221C28.9628 174.291 29.8708 170.049 34.9525 165.852C29.4607 156.502 24.0275 147.256 18.0231 137.04C14.8892 139.535 11.2865 142.397 8.06468 144.951C7.96217 138.273 10.4371 134.472 16.7344 132.021C15.5189 121.277 14.318 110.621 13 99.0118C8.97266 99.9071 4.56457 100.876 0.493317 101.786C2.67539 95.4893 7.49353 92.8181 13.6151 94.5206C17.0859 83.6155 20.5421 72.725 24.1886 61.2475C20.2638 60.3816 15.7678 59.3982 11.5355 58.4588C15.1821 53.6447 21.8308 53.2044 26.4293 57.7397C33.4734 49.6966 40.5322 41.6535 47.9718 33.1554C44.2666 30.5429 40.1807 27.6662 36.3291 24.9362C42.4946 21.7073 48.7919 24.3932 50.6078 30.9979C61.0203 25.949 71.5352 20.8413 82.2992 15.6162C79.9707 11.8882 77.2321 7.51446 74.6692 3.40485C82.4456 3.59566 86.3558 7.77865 85.5796 14.9998C96.7683 14.5448 108.059 14.0751 120.288 13.5614C119.834 9.40781 119.307 4.62306 118.823 0.249268C125.501 4.62306 127.244 8.82072 124.608 14.7063C134.288 18.4783 143.983 22.265 154.557 26.3746C155.86 22.0889 157.339 17.2601 158.672 12.8423C163.3 19.4176 163.036 24.5987 157.969 28.4734C166.155 36.5605 174.415 44.721 183.246 53.4539C185.472 50.5625 187.991 47.3042 190.29 44.3248C192.252 49.814 191.037 53.7328 185.999 58.18C189.851 68.454 193.614 78.4931 197.671 89.3249C200.907 87.6517 204.422 85.8171 207.585 84.1732C207.146 89.2368 204.071 92.9355 198.403 94.8729C197.773 105.851 197.158 116.712 196.499 128.41C199.575 128.014 202.914 127.588 206.253 127.163C206.472 127.485 206.678 127.823 206.897 128.146C203.661 130.01 200.615 132.593 197.114 133.518C194.654 134.178 193.644 134.941 192.618 137.128C188.474 145.935 184.022 154.609 179.424 163.87C181.679 164.604 184.71 165.602 187.742 166.585C187.771 166.894 187.8 167.187 187.83 167.495C184.593 168.009 181.196 169.374 178.149 168.802C174.664 168.141 173.009 169.638 170.71 171.517C163.197 177.681 155.435 183.538 147.249 189.937C149.533 191.933 152.199 194.237 155.274 196.908C150.456 196.395 146.033 196.571 142.475 192.96C141.684 192.153 139.721 192.241 138.316 192.329C131.52 192.74 124.608 194.399 117.974 193.562C100.752 191.419 94.1175 183.361 92.7116 166.057C91.379 149.751 98.9503 138.259 111.589 129.452C120.317 123.361 129.675 118.151 138.213 111.81C146.151 105.91 152.638 98.5862 154.557 88.2241C156.314 78.6986 153.195 71.3454 144.715 66.8835C130.319 59.3101 116.143 61.8933 102.392 68.7916C100.239 69.8777 98.8918 72.5783 97.1344 74.4863C93.7075 78.1996 90.3538 82.0157 86.7219 85.5235C85.6089 86.5949 83.6758 86.8298 81.3473 87.7544C90.2074 75.998 92.3602 67.9109 87.0002 65.1957C86.5169 80.636 76.5145 84.6722 63.1731 84.0118C65.5162 83.2779 67.8301 82.3092 70.2319 81.8395C79.1506 80.1223 83.4854 75.8513 84.5984 67.7348C84.9352 65.225 84.5252 63.4638 81.9038 62.5831C80.2489 62.0254 78.7551 60.8953 77.0856 60.543C75.2404 60.1467 72.619 59.589 71.506 60.5136C70.3637 61.4677 70.5394 64.1096 70.3051 66.0323C70.2026 66.8542 70.4955 67.7348 70.6419 68.8356C67.6397 66.7955 64.7108 65.137 62.1479 63.0088C57.0662 58.7964 57.4177 53.2778 63.0852 50.1956C87.1613 37.0449 111.179 36.8394 135.152 50.6066C144.247 55.8316 152.653 61.7612 158.789 70.4501C168.704 84.4961 168.22 103.063 157.632 116.624C150.559 125.666 141.611 132.226 131.433 137.437C126.043 140.211 120.61 143.396 116.26 147.52C113.068 150.543 110.534 155.137 109.524 159.452C106.668 171.561 114.108 180.103 126.658 180.074C140.322 180.044 150.998 173.308 160.224 164.178C183.993 140.651 191.916 112.427 181.181 80.6507C170.534 49.1242 147.454 30.8805 114.488 26.8296C55.0013 19.5204 9.63167 80.4599 32.5508 136.424C41.6013 158.542 58.5453 173.161 79.2238 183.772C86.3265 187.412 94.0443 189.849 101.455 192.887C102.612 193.357 103.637 194.12 104.735 194.736L104.852 194.604L104.867 194.677ZM76.4998 51.6046C82.4456 53.8502 86.1947 52.544 88.04 47.8619C83.749 47.4363 79.6631 47.2015 76.4998 51.6046Z" fill="#180636"/>
</svg>
